<svg xmlns="http://www.w3.org/2000/svg" version="1.1" xmlns:xlink="http://www.w3.org/1999/xlink" xmlns:svgjs="http://svgjs.dev/svgjs" width="1500" height="1500" viewBox="0 0 1500 1500"><rect width="1500" height="1500" fill="#000000"></rect><g transform="matrix(0.6666666666666666,0,0,0.6666666666666666,249.39436519522388,591.3636969688156)"><svg viewBox="0 0 396 126" data-background-color="#edffde" preserveAspectRatio="xMidYMid meet" height="477" width="1500" xmlns="http://www.w3.org/2000/svg" xmlns:xlink="http://www.w3.org/1999/xlink"><g id="tight-bounds" transform="matrix(1,0,0,1,0.24008861730862918,-0.14410634613449247)"><svg viewBox="0 0 395.52 126.28805834785987" height="126.28805834785987" width="395.52"><g><svg viewBox="0 0 395.52 126.28805834785987" height="126.28805834785987" width="395.52"><g><svg viewBox="0 0 395.52 126.28805834785987" height="126.28805834785987" width="395.52"><g id="textblocktransform"><svg viewBox="0 0 395.52 126.28805834785987" height="126.28805834785987" width="395.52" id="textblock"><g><svg viewBox="0 0 395.52 126.28805834785987" height="126.28805834785987" width="395.52"><path d="M394.594 27.086C392.735 13.978 387.435 10.334 387.435 10.334 371.165-3.168 350.86-0.258 332.619 1.682 300.414 1.76 268.339 4.644 236.208 6.191 168.767 6.427 100.749 2.547 33.643 12.116 27.339 15.053-6.54 12.693 1.121 28.764 3.129 35.45 10.456 42.869 10.232 49.004 11.236 50.079 12.631 47.615 13.226 49.161 15.309 53.33 18.711 51.364 21.501 53.828 17.614 60.409 20.403 65.888 23.062 71.63 18.377 73.124 12.371 72.416 9.675 77.371 9.396 80.963 7.89 80.281 6.235 80.124 5.026 80.019 2.59 80.412 2.999 81.54 4.394 85.394-1.594 87.622 2.162 91.397-0.422 95.487 3.948 99.027 3.353 103.457 3.278 104.349 3.687 105.109 4.338 105.319 7.22 106.446 3.018 108.648 3.464 111.034 33.029 127.341 65.104 116.068 95.394 123.566 103.259 118.323 97.346 125.428 100.489 124.326 102.943 123.042 104.728 128.364 107.499 125.349 107.927 124.484 107.276 122.439 108.8 122.832 109.6 123.042 110.307 122.989 110.418 121.783 110.586 119.974 109.117 121.102 108.726 120.158 112.947 115.386 111.906 126.738 115.866 126.266 115.68 124.877 114.528 122.884 116.889 123.147 119.232 121.154 119.306 119.502 121.389 123.986 121.463 124.956 121.835 125.637 122.43 126.109 128.938 121.233 135.409 127.84 142.233 125.637 146.417 123.225 150.433 126.948 154.672 126.031 156.16 125.296 157.666 123.986 159.098 126.188 176.632 126.66 195.319 124.693 211.943 126.266 256.364 123.33 303.836 127.472 350.674 123.592 361.719 122.098 373.192 119.974 383.958 118.27 383.958 118.27 392.679 113.604 392.679 92.63S394.538 74.278 394.817 57.577C395.096 40.877 396.398 40.195 394.538 27.086Z" opacity="1" fill="#ffffff" data-fill-palette-color="tertiary"></path><g transform="matrix(1,0,0,1,55.76832,26.230666666666668)"><svg width="283.98335999999995" viewBox="5 -49.300889805524996 288.48 75.00088980552499" height="73.82672501452653" data-palette-color="#000000"><path d="M7.3 0.35L7.3 0.35Q6.05 0.35 5 0L5 0 5-36.1Q6.2-36.45 7.3-36.45L7.3-36.45Q8.6-36.45 9.65-36.1L9.65-36.1 9.65-20.6 26.6-20.6 26.6-36.1Q27.65-36.45 28.95-36.45L28.95-36.45Q30.05-36.45 31.25-36.1L31.25-36.1 31.25 0Q30.2 0.35 28.95 0.35L28.95 0.35Q27.8 0.35 26.6 0L26.6 0 26.6-16.25 9.65-16.25 9.65 0Q8.45 0.35 7.3 0.35ZM36.2-3.6L36.2-3.6Q37.25-3.6 38.45-4.25 39.65-4.9 40.7-6.25L40.7-6.25Q42.15-8.25 42.72-10.95 43.3-13.65 43.3-16.2L43.3-16.2 43.3-23.6Q43.75-23.75 44.35-23.85 44.95-23.95 45.6-23.95L45.6-23.95Q46.75-23.95 47.85-23.6L47.85-23.6 47.85-12.05Q47.85-7.7 49.25-5.73 50.65-3.75 53.65-3.75L53.65-3.75Q60.8-3.75 60.8-14.2L60.8-14.2 60.8-23.6Q61.2-23.75 61.8-23.85 62.4-23.95 63.05-23.95L63.05-23.95Q64.25-23.95 65.35-23.6L65.35-23.6 65.35-9.2Q65.35-6.55 66.17-5.08 67-3.6 68.95-3.6L68.95-3.6Q69.8-3.6 70.1-2.9 70.4-2.2 70.4-1.4L70.4-1.4Q70.4-0.6 69.97 0.05 69.55 0.7 68.6 0.7L68.6 0.7Q63.8 0.7 62.1-3.5L62.1-3.5Q60.7-1.45 58.5-0.38 56.3 0.7 53.3 0.7L53.3 0.7Q46.95 0.7 44.6-4.7L44.6-4.7Q43.8-3.25 42.8-2.25L42.8-2.25Q41.45-0.9 39.67-0.1 37.9 0.7 35.85 0.7L35.85 0.7Q35.15 0.7 34.77 0.03 34.4-0.65 34.4-1.45L34.4-1.45Q34.4-2.3 34.82-2.95 35.25-3.6 36.2-3.6ZM68.59 0.7L68.59 0.7Q67.95 0.7 67.55 0.1 67.15-0.5 67.15-1.45L67.15-1.45Q67.15-3.6 68.95-3.6L68.95-3.6Q70.55-3.6 72.5-5.58 74.45-7.55 77.05-11.95L77.05-11.95 82.4-21Q82.3-21.7 82.3-22.5L82.3-22.5Q82.3-25 83.22-26.2 84.15-27.4 84.75-27.65L84.75-27.65Q85.59-27.85 86.57-27.63 87.55-27.4 88.34-26.9 89.15-26.4 89.45-25.7L89.45-25.7Q89.25-24.8 88.7-23.55 88.15-22.3 86.95-20.2L86.95-20.2Q87.3-19.65 87.84-19.1 88.4-18.55 89.2-17.9L89.2-17.9 93-14.8Q95.05-13.15 96.07-11.38 97.09-9.6 97.09-7.4L97.09-7.4Q97.09-4.75 95.59-2.7L95.59-2.7Q95.84-2.15 95.84-1.4L95.84-1.4Q95.84-0.45 95.37 0.13 94.9 0.7 94.05 0.7L94.05 0.7Q93.25 0.7 92.5 0.6 91.75 0.5 90.84 0.35L90.84 0.35Q89.5 0.7 88 0.7L88 0.7Q86.25 0.7 84.5 0.18 82.75-0.35 80.84-1.5L80.84-1.5Q80.75-4.15 82.84-5.4L82.84-5.4Q85.59-3.6 88.05-3.6L88.05-3.6Q90.15-3.6 91.4-4.73 92.65-5.85 92.65-7.6L92.65-7.6Q92.65-9.8 90.25-11.7L90.25-11.7 86.45-14.7Q85.45-15.5 84.65-16.35L84.65-16.35 79.65-7.9Q76.9-3.25 74.37-1.28 71.84 0.7 68.59 0.7ZM98.94 0.7L98.94 0.7Q98.29 0.7 97.89 0.1 97.49-0.5 97.49-1.45L97.49-1.45Q97.49-2.45 97.97-3.03 98.44-3.6 99.24-3.6L99.24-3.6Q101.44-3.6 103.47-5.58 105.49-7.55 107.99-12.2L107.99-12.2 107.99-38.95Q107.99-43.95 110.12-46.65 112.24-49.35 116.29-49.3L116.29-49.3Q119.99-49.25 122.07-46.5 124.14-43.75 124.14-39.35L124.14-39.35Q124.14-35.8 122.84-31.45 121.54-27.1 119.39-23.1L119.39-23.1Q119.89-23.15 120.44-23.15L120.44-23.15Q124.19-23.15 126.42-20.5 128.64-17.85 128.64-13.4L128.64-13.4 128.64-9.1Q128.64-6.2 129.37-4.9 130.09-3.6 131.79-3.6L131.79-3.6Q132.59-3.6 132.94-2.98 133.29-2.35 133.29-1.4L133.29-1.4Q133.29-0.45 132.82 0.13 132.34 0.7 131.49 0.7L131.49 0.7Q127.89 0.7 125.97-1.63 124.04-3.95 124.04-8.2L124.04-8.2 124.04-13.5Q124.04-16.05 122.92-17.48 121.79-18.9 119.74-18.9L119.74-18.9Q117.74-18.9 116.14-17.57 114.54-16.25 113.59-13.95 112.64-11.65 112.59-8.65L112.59-8.65 112.59 0Q112.09 0.15 111.49 0.25 110.89 0.35 110.34 0.35L110.34 0.35Q109.19 0.35 107.99 0L107.99 0 107.99-4.1Q105.94-1.45 103.82-0.38 101.69 0.7 98.94 0.7ZM112.44-39L112.44-39 112.44-19.7Q114.69-23.15 116.32-26.65 117.94-30.15 118.82-33.43 119.69-36.7 119.69-39.4L119.69-39.4Q119.69-42.2 118.77-43.68 117.84-45.15 116.09-45.15L116.09-45.15Q112.44-45.15 112.44-39ZM146.44 0.65L146.44 0.65Q141.59 0.6 138.54-1.53 135.49-3.65 134.49-7.2L134.49-7.2Q135.04-8.15 136.27-8.72 137.49-9.3 138.59-9.2L138.59-9.2Q139.49-6.5 141.59-5.1 143.69-3.7 146.69-3.75L146.69-3.75Q149.89-3.8 151.84-5.43 153.79-7.05 153.79-9.85L153.79-9.85Q153.79-14.1 149.34-15.35L149.34-15.35 142.69-17.2Q139.19-18.2 137.19-20.63 135.19-23.05 135.19-26.4L135.19-26.4Q135.19-29.4 136.72-31.75 138.24-34.1 140.92-35.43 143.59-36.75 147.04-36.75L147.04-36.75Q150.89-36.75 153.97-35.13 157.04-33.5 158.29-30.85L158.29-30.85Q157.84-30.05 156.82-29.28 155.79-28.5 154.59-28.1L154.59-28.1Q152.14-32.35 146.89-32.35L146.89-32.35Q143.79-32.35 141.84-30.78 139.89-29.2 139.89-26.7L139.89-26.7Q139.89-22.7 145.04-21.25L145.04-21.25 150.94-19.65Q154.49-18.7 156.49-16.13 158.49-13.55 158.49-9.9L158.49-9.9Q158.49-6.7 156.92-4.3 155.34-1.9 152.62-0.63 149.89 0.65 146.44 0.65ZM161.04-3.6L161.04-3.6Q162.29-3.6 163.91-4.35 165.54-5.1 167.09-6.9 168.64-8.7 169.64-11.78 170.64-14.85 170.64-19.5L170.64-19.5 170.64-24.3 166.94-24.3Q166.59-25.1 166.59-26.3 166.59-27.5 166.94-28.3L166.94-28.3 170.64-28.3 170.64-37.15Q171.59-37.5 172.94-37.5L172.94-37.5Q174.14-37.5 175.24-37.15L175.24-37.15 175.24-28.3 182.69-28.3Q183.09-27.5 183.09-26.3 183.09-25.1 182.69-24.3L182.69-24.3 175.24-24.3 175.24-13.95Q175.24-8.95 176.76-6.28 178.29-3.6 181.09-3.6L181.09-3.6Q182.54-3.6 182.54-1.4L182.54-1.4Q182.54-0.45 182.06 0.13 181.59 0.7 180.74 0.7L180.74 0.7Q177.49 0.7 175.26-1.15 173.04-3 171.99-6.3L171.99-6.3Q169.89-2.7 166.84-1 163.79 0.7 160.69 0.7L160.69 0.7Q160.04 0.7 159.64 0.08 159.24-0.55 159.24-1.45L159.24-1.45Q159.24-2.4 159.69-3 160.14-3.6 161.04-3.6ZM180.74 0.7L180.74 0.7Q180.09 0.7 179.69 0.1 179.29-0.5 179.29-1.45L179.29-1.45Q179.29-3.6 181.09-3.6L181.09-3.6Q183.29-3.6 185.01-5.43 186.74-7.25 187.76-10.4 188.79-13.55 188.79-17.4L188.79-17.4Q188.79-18.3 188.69-19.05 188.59-19.8 188.44-20.3L188.44-20.3Q187.99-20.75 187.46-21.75 186.94-22.75 186.56-23.88 186.19-25 186.19-25.7L186.19-25.7Q186.79-26.65 188.11-27.18 189.44-27.7 191.04-27.45L191.04-27.45Q191.99-25.7 192.59-23.05L192.59-23.05Q194.09-23.1 196.64-23.7L196.64-23.7Q198.24-24.05 199.21-24.18 200.19-24.3 200.89-24.3L200.89-24.3Q203.59-24.3 205.14-22.28 206.69-20.25 206.69-16.8L206.69-16.8 206.69-8.75Q206.69-6 207.41-4.8 208.14-3.6 209.74-3.6L209.74-3.6Q210.44-3.6 210.81-3 211.19-2.4 211.19-1.4L211.19-1.4Q211.19-0.6 210.76 0.05 210.34 0.7 209.39 0.7L209.39 0.7Q202.14 0.7 202.14-8.2L202.14-8.2 202.14-15.95Q202.14-18.2 201.64-19.1 201.14-20 199.84-20L199.84-20Q199.39-20 198.84-19.9 198.29-19.8 196.89-19.5L196.89-19.5Q194.44-19 193.19-18.9L193.19-18.9Q193.24-18.1 193.24-17.3L193.24-17.3Q193.24-11.9 191.69-7.85 190.14-3.8 187.31-1.55 184.49 0.7 180.74 0.7ZM209.73-3.6L209.73-3.6Q210.78-3.6 211.98-4.25 213.18-4.9 214.23-6.25L214.23-6.25Q215.48-7.95 216.06-10.15 216.63-12.35 216.78-14.6L216.78-14.6 216.78-23.6Q217.23-23.75 217.83-23.85 218.43-23.95 219.08-23.95L219.08-23.95Q220.23-23.95 221.33-23.6L221.33-23.6 221.33-9.2Q221.33-6.55 222.16-5.08 222.98-3.6 224.93-3.6L224.93-3.6Q225.78-3.6 226.08-2.9 226.38-2.2 226.38-1.4L226.38-1.4Q226.38-0.6 225.96 0.05 225.53 0.7 224.58 0.7L224.58 0.7Q219.38 0.7 217.83-4.2L217.83-4.2Q217.13-3.05 216.33-2.25L216.33-2.25Q214.98-0.9 213.21-0.1 211.43 0.7 209.38 0.7L209.38 0.7Q208.68 0.7 208.31 0.03 207.93-0.65 207.93-1.45L207.93-1.45Q207.93-2.3 208.36-2.95 208.78-3.6 209.73-3.6ZM219.13-30.8L219.13-30.8Q217.73-30.8 216.73-31.8 215.73-32.8 215.73-34.2L215.73-34.2Q215.73-35.7 216.71-36.65 217.68-37.6 219.13-37.6L219.13-37.6Q220.63-37.6 221.58-36.65 222.53-35.7 222.53-34.2L222.53-34.2Q222.53-32.75 221.56-31.78 220.58-30.8 219.13-30.8ZM224.58 0.7L224.58 0.7Q223.93 0.7 223.53 0.1 223.13-0.5 223.13-1.45L223.13-1.45Q223.13-3.6 224.93-3.6L224.93-3.6Q226.53-3.6 227.81-5.23 229.08-6.85 230.03-10.65L230.03-10.65 231.53-16.5Q233.63-24.3 239.53-24.3L239.53-24.3Q241.78-24.3 243.33-22.98 244.88-21.65 245.48-19.4L245.48-19.4Q246.88-21.75 249.08-23.03 251.28-24.3 253.98-24.3L253.98-24.3Q257.88-24.3 260.01-21.75 262.13-19.2 262.13-14.6L262.13-14.6 262.13-8.75Q262.13-6 262.86-4.8 263.58-3.6 265.18-3.6L265.18-3.6Q265.88-3.6 266.26-3 266.63-2.4 266.63-1.4L266.63-1.4Q266.63-0.6 266.21 0.05 265.78 0.7 264.83 0.7L264.83 0.7Q257.58 0.7 257.58-8.2L257.58-8.2 257.58-14.6Q257.58-20 253.33-20L253.33-20Q251.13-20 249.46-18.25 247.78-16.5 246.86-13.4 245.93-10.3 245.93-6.2L245.93-6.2 245.93 0Q245.43 0.15 244.83 0.25 244.23 0.35 243.68 0.35L243.68 0.35Q242.48 0.35 241.43 0L241.43 0 241.43-15.95Q241.43-17.9 240.93-18.95 240.43-20 239.13-20L239.13-20Q238.08-20 237.33-19.05 236.58-18.1 236.03-16L236.03-16 234.18-8.8Q232.88-3.85 230.58-1.58 228.28 0.7 224.58 0.7ZM265.18-3.6L265.18-3.6Q266.88-3.6 268.5-5.28 270.13-6.95 271.23-9.8L271.23-9.8Q271.18-10.5 271.18-11.2L271.18-11.2Q271.18-15 272.68-17.95 274.18-20.9 276.75-22.6 279.33-24.3 282.63-24.3L282.63-24.3Q284.38-24.3 286.08-23.63 287.78-22.95 288.93-21.8L288.93-21.8 288.93-23.85Q289.38-24 289.98-24.1 290.58-24.2 291.23-24.2L291.23-24.2Q292.43-24.2 293.48-23.85L293.48-23.85 293.48 14Q293.48 25.7 284.93 25.7L284.93 25.7Q280.98 25.7 278.75 23.35 276.53 21 276.53 16.9L276.53 16.9Q276.53 7.75 289.03-0.25L289.03-0.25 289.03-2.35Q287.63-0.9 285.78-0.1 283.93 0.7 281.73 0.7L281.73 0.7Q278.83 0.7 276.6-0.58 274.38-1.85 272.98-4.1L272.98-4.1Q269.88 0.7 264.83 0.7L264.83 0.7Q264.18 0.7 263.78 0.1 263.38-0.5 263.38-1.45L263.38-1.45Q263.38-3.6 265.18-3.6ZM275.83-11.2L275.83-11.2Q275.83-7.65 277.45-5.63 279.08-3.6 281.93-3.6L281.93-3.6Q285.08-3.6 287-5.75 288.93-7.9 288.93-11.4L288.93-11.4 288.93-17Q287.93-18.35 286.38-19.18 284.83-20 283.18-20L283.18-20Q281.03-20 279.38-18.85 277.73-17.7 276.78-15.73 275.83-13.75 275.83-11.2ZM281.03 16.8L281.03 16.8Q281.03 18.95 282.03 20.18 283.03 21.4 284.78 21.4L284.78 21.4Q289.03 21.4 289.03 14L289.03 14 289.03 5.05Q281.03 10.7 281.03 16.8Z" opacity="1" transform="matrix(1,0,0,1,0,0)" fill="#000000" class="wordmark-text-0" data-fill-palette-color="quaternary" id="text-0"></path></svg></g></svg></g></svg></g></svg></g><g></g></svg></g><defs></defs></svg><rect width="395.52" height="126.28805834785987" fill="none" stroke="none" visibility="hidden"></rect></g></svg></g></svg>